<svg viewBox="0 0 28 28" fill="none" xmlns="http://www.w3.org/2000/svg" height="28" width="28" class="clrText"><path d="M8.677 10.281h-1.75V8.094h-.875v2.187h-1.75a.437.437 0 00-.437.438v12.25a.437.437 0 00.437.437h1.75v2.188h.875v-2.188h1.75a.437.437 0 00.438-.437v-12.25a.437.437 0 00-.438-.438zM16.188 4.594h-1.75V2.406h-.876v2.188h-1.75a.438.438 0 00-.437.437v12.25a.438.438 0 00.438.438h1.75v2.187h.874V17.72h1.75a.438.438 0 00.438-.438V5.031a.438.438 0 00-.438-.437zM23.698 9.406h-1.75V7.22h-.875v2.187h-1.75a.437.437 0 00-.438.438v12.25a.437.437 0 00.438.437h1.75v2.188h.875V22.53h1.75a.437.437 0 00.437-.437V9.844a.437.437 0 00-.437-.438z" fill="#44475B"></path></svg>