<svg viewBox="0 0 40 32" fill="none" xmlns="http://www.w3.org/2000/svg" height="40" width="40"><path fill-rule="evenodd" clip-rule="evenodd" d="M27.145 7.158c0 3.947-3.212 7.159-7.159 7.159-3.947 0-7.158-3.212-7.158-7.159C12.828 3.211 16.039 0 19.986 0c3.947 0 7.159 3.211 7.159 7.158zm-1.344 0a5.821 5.821 0 00-5.815-5.814 5.821 5.821 0 00-5.815 5.814 5.821 5.821 0 005.815 5.815 5.821 5.821 0 005.815-5.815z" fill="#00D09C"></path><path d="M21.593 5.451h-.546a1.85 1.85 0 00-.236-.6h.782A.42.42 0 0022 4.423a.42.42 0 00-.407-.429h-3.186a.42.42 0 00-.407.429.42.42 0 00.407.428h.913c.383 0 .717.257.867.6h-1.78A.42.42 0 0018 5.88a.42.42 0 00.407.428h1.78a1.358 1.358 0 01-.187.27.927.927 0 01-.68.287h-.913a.422.422 0 00-.407.437c0 .116.049.227.126.309l2.277 2.266c.163.163.42.155.575-.017a.443.443 0 00-.017-.604l-1.535-1.53c.432-.025.839-.214 1.144-.535.232-.244.395-.549.477-.883h.546A.42.42 0 0022 5.88a.42.42 0 00-.407-.429z" fill="#00D09C"></path><circle cx="4.028" cy="25.977" r="1.236" fill="#00D09C"></circle><path fill-rule="evenodd" clip-rule="evenodd" d="M39.823 18.298l-.02-.051a4.879 4.879 0 00-6.132-2.79L28.643 17.2c-1.118-1.2-2.843-1.758-4.501-1.336l-5.339 1.358a4.775 4.775 0 01-3.607-.527 9.752 9.752 0 00-5.007-1.384h-.007l-2.127.001V13.3c0-.371-.3-.672-.671-.672H.672C.3 12.628 0 12.93 0 13.3v17.629c0 .37.3.672.672.672h6.712c.37 0 .671-.301.671-.672v-3.326h2.135c1.186 0 2.339.241 3.426.717l1.331.583a9.079 9.079 0 007.6-.145c4.767-2.308 13.223-6.4 16.29-7.883a2.026 2.026 0 00.986-2.577zM6.712 15.985v14.272H1.344V13.972h5.368v2.013zm15.25 11.564c4.767-2.308 13.223-6.401 16.29-7.884a.67.67 0 00.325-.865l-.02-.052a3.537 3.537 0 00-4.445-2.022l-4.683 1.625.078.188.003.008.499 1.196a.676.676 0 01.022.455l-.002.006a.7.7 0 01-.02.055v.002a.237.237 0 01-.01.02l-.018.038a.21.21 0 01-.013.021l-.002.003a.67.67 0 01-.033.051.607.607 0 01-.026.035l-.014.015a.644.644 0 01-.08.078l-.01.008-.007.005a.612.612 0 01-.035.026l-.023.014-.034.02-.03.013-.01.006a.302.302 0 01-.017.008l-.005.001-.003.002-9.83 3.957-.502-1.246 9.2-3.704-.048-.114-.076-.183-.116-.277a3.265 3.265 0 00-3.794-1.891l-5.339 1.358a6.129 6.129 0 01-4.628-.676 8.408 8.408 0 00-4.317-1.194h-.006l-2.128.002v9.602h2.135c1.373 0 2.707.28 3.965.83l1.331.583a7.728 7.728 0 006.475-.123z" fill="#00D09C"></path></svg>