<svg viewBox="0 0 50 50" fill="none" xmlns="http://www.w3.org/2000/svg" height="40" width="40"><g clip-path="url(#high_interest_svg__clip0)" fill="#00D09C"><path d="M27.407 9.89a1.096 1.096 0 00-.739-.336l-6.148-.321a.686.686 0 10-.072 1.37l4.706.246-14.041 9.931a.685.685 0 10.793 1.12L26.13 11.837l-.808 4.834a.686.686 0 001.353.226l1.015-6.07v-.001a1.1 1.1 0 00-.283-.936zM11.052 32.54H7.85c-.634.002-1.141.509-1.144 1.142v3.2c.003.634.51 1.14 1.144 1.143h3.2a1.143 1.143 0 001.144-1.143v-3.2a1.144 1.144 0 00-1.143-1.142zm-.229 4.114H8.08V33.91h2.744v2.743zM18.826 27.968h-3.2c-.635.003-1.141.51-1.144 1.143v7.771c.003.634.51 1.14 1.143 1.143h3.201a1.143 1.143 0 001.144-1.143v-7.77a1.144 1.144 0 00-1.144-1.144zm-.228 8.686h-2.744V29.34h2.744v7.314zM26.6 22.94h-3.2c-.635.003-1.141.51-1.144 1.143v12.8c.003.633.51 1.14 1.143 1.142H26.6a1.144 1.144 0 001.144-1.143v-12.8A1.143 1.143 0 0026.6 22.94zm-.228 13.713h-2.744V24.311h2.744v12.342zM34.375 17.454h-3.201c-.634.003-1.14.51-1.143 1.143v18.285c.002.634.509 1.14 1.143 1.143h3.201a1.143 1.143 0 001.143-1.143V18.597a1.144 1.144 0 00-1.143-1.143zm-.229 19.2h-2.744V24.31h2.744v12.343zm0-13.714h-2.744v-4.114h2.744v4.114zM42.15 9.683h-3.202c-.634.003-1.14.51-1.143 1.143v26.056c.002.634.51 1.14 1.143 1.143h3.201a1.143 1.143 0 001.144-1.143V10.826a1.144 1.144 0 00-1.144-1.143zm-.23 26.97h-2.743V18.826h2.744v17.827zm0-19.199h-2.743v-6.4h2.744v6.4zM43.064 39.397H6.936a.686.686 0 000 1.37h36.128a.686.686 0 000-1.37z"></path></g><defs><clipPath id="high_interest_svg__clip0"><path fill="#fff" transform="translate(6.25 6.25)" d="M0 0h37.5v37.5H0z"></path></clipPath></defs></svg>