<svg viewBox="0 0 50 50" fill="none" xmlns="http://www.w3.org/2000/svg" height="40" width="40"><g clip-path="url(#fd_bank_svg__clip0)" fill="#00D09C"><path d="M40.885 20.05c1.131 0 2.052-.92 2.052-2.051v-2.656c0-.842-.505-1.589-1.286-1.903L26.27 7.15a2.042 2.042 0 00-1.531-.003L9.348 13.44a2.042 2.042 0 00-1.285 1.903v2.656c0 1.131.92 2.052 2.052 2.052h1.23v15.453h-1.23c-1.131 0-2.052.92-2.052 2.052v2.393c0 1.13.92 2.051 2.052 2.051h30.77c1.131 0 2.052-.92 2.052-2.051v-2.393c0-1.132-.92-2.052-2.052-2.052h-1.23V20.051h1.23zm0 17.505c.002 2.448.007 2.394 0 2.394h-30.77v-2.394h30.77zm-27.488-2.051V20.05h2.325v15.454h-2.325zm4.376 0V20.05h4.513v15.454h-4.513zm6.564 0V20.05h2.325v15.454h-2.325zm4.377 0V20.05h4.513v15.454h-4.513zm6.564 0V20.05h2.325v15.454h-2.325zM10.115 17.999c0-2.861-.003-2.655.007-2.659L25.5 9.052l15.378 6.288c.01.004.007-.195.007 2.659h-30.77z"></path><path d="M25.5 11.435c-.567 0-1.026.459-1.026 1.025v2.188a1.026 1.026 0 002.052 0V12.46c0-.566-.46-1.025-1.026-1.025z"></path></g><defs><clipPath id="fd_bank_svg__clip0"><path fill="#fff" transform="translate(8 7)" d="M0 0h35v35H0z"></path></clipPath></defs></svg>