<svg viewBox="0 0 50 50" fill="none" xmlns="http://www.w3.org/2000/svg" height="40" width="40"><path d="M39.354 8h-9.25a6.52 6.52 0 00-4.64 1.922l-16.22 16.22A4.22 4.22 0 008 29.149c0 1.133.442 2.199 1.244 3.001l9.606 9.606A4.221 4.221 0 0021.857 43c1.133 0 2.2-.442 3.001-1.244l16.22-16.22A6.52 6.52 0 0043 20.896v-9.25A3.65 3.65 0 0039.354 8zm2.188 12.896a5.07 5.07 0 01-1.494 3.608l-16.22 16.221c-1.05 1.049-2.888 1.056-3.945 0l-9.608-9.608a2.767 2.767 0 01-.817-1.974c0-.744.29-1.444.817-1.97l16.22-16.22a5.074 5.074 0 013.609-1.495h9.25a2.19 2.19 0 012.188 2.188v9.25z" fill="#00D09C"></path><path d="M34.98 12.375a3.651 3.651 0 00-3.647 3.646 3.65 3.65 0 003.646 3.646 3.65 3.65 0 003.646-3.646 3.65 3.65 0 00-3.646-3.646zm0 5.833a2.19 2.19 0 01-2.188-2.187 2.19 2.19 0 012.187-2.188 2.19 2.19 0 012.188 2.188 2.19 2.19 0 01-2.188 2.187z" fill="#00D09C"></path></svg>