<svg viewBox="0 0 38 38" fill="none" xmlns="http://www.w3.org/2000/svg" height="40" width="40"><g clip-path="url(#fd_secure_svg__clip0)"><path d="M32.403 6.599C25.481 6.599 20.18.834 20.09.736a1.467 1.467 0 00-2.18-.001c-.052.058-5.367 5.864-12.313 5.864-.81 0-1.465.656-1.465 1.465 0 12.874 2.597 24.013 14.24 29.544.397.19.859.19 1.257 0 11.669-5.543 14.24-16.72 14.24-29.544 0-.81-.657-1.465-1.466-1.465zM19 34.652C9.458 29.77 7.217 20.263 7.07 9.46c5.615-.525 9.987-3.908 11.93-5.687 1.943 1.78 6.315 5.162 11.93 5.687-.147 10.805-2.39 20.31-11.93 25.192zm-1.504-14.225l5.962-5.962a1.465 1.465 0 112.071 2.072l-6.997 6.997c-.572.572-1.5.572-2.072 0l-3.989-3.989a1.465 1.465 0 112.072-2.071l2.953 2.953z" fill="#00D09C"></path><path fill-rule="evenodd" clip-rule="evenodd" d="M19.718 1.07a.967.967 0 00-1.436 0h-.001c-.043.048-1.416 1.546-3.666 3.036-2.247 1.487-5.409 2.993-9.018 2.993a.965.965 0 00-.965.965c0 12.834 2.59 23.694 13.954 29.093a.966.966 0 00.828 0c11.39-5.411 13.954-16.31 13.954-29.093a.965.965 0 00-.965-.965c-3.597 0-6.75-1.496-8.994-2.978-2.248-1.484-3.627-2.982-3.688-3.049l-.003-.003zm-.09 36.538c-.397.19-.859.19-1.257 0-11.642-5.53-14.24-16.67-14.24-29.544 0-.81.657-1.465 1.466-1.465 6.946 0 12.26-5.806 12.313-5.864a1.467 1.467 0 012.18 0C20.18.835 25.481 6.6 32.403 6.6c.81 0 1.465.656 1.465 1.465 0 12.823-2.57 24-14.24 29.544zM19 35.214l-.228-.117C8.966 30.08 6.717 20.307 6.57 9.467l-.006-.462.46-.043c5.451-.51 9.722-3.804 11.638-5.558l.338-.31.338.31c1.916 1.754 6.187 5.049 11.638 5.558l.46.043-.006.461c-.147 10.843-2.397 20.615-12.202 25.631l-.228.117zm-1.504-14.08l-3.307-3.307a.965.965 0 10-1.364 1.365l3.988 3.988a.966.966 0 001.365 0l6.997-6.997a.965.965 0 00-1.364-1.364l-6.315 6.315zm-1.036 2.4c.572.572 1.5.572 2.072 0l6.997-6.997a1.465 1.465 0 00-2.072-2.072l-5.961 5.962-2.953-2.953a1.465 1.465 0 10-2.072 2.071l3.989 3.99zM19 3.773c-1.943 1.78-6.315 5.162-11.93 5.687C7.217 20.263 9.458 29.77 19 34.652c9.54-4.881 11.783-14.387 11.93-25.192-5.615-.525-9.987-3.908-11.93-5.687z" fill="#fff"></path></g><defs><clipPath id="fd_secure_svg__clip0"><path fill="#fff" transform="translate(.25 .25)" d="M0 0h37.5v37.5H0z"></path></clipPath></defs></svg>