<svg viewBox="0 0 45 35" fill="none" xmlns="http://www.w3.org/2000/svg" height="40" width="40"><path fill-rule="evenodd" clip-rule="evenodd" d="M39.536 14.576a8.793 8.793 0 01-3.518 7.025c5.017.944 8.82 5.306 8.82 10.529v1.756a.87.87 0 01-.875.864H.876A.87.87 0 010 33.886v-2.217c0-6.805 5.402-12.387 12.196-12.79v-.28c-2.437-1.288-4.098-3.825-4.098-6.738V4.245c0-1.669 1.375-3.026 3.066-3.026.146 0 .29.01.43.03A7.747 7.747 0 0115.835 0c1.523 0 2.98.431 4.241 1.25.14-.02.285-.031.431-.031 1.69 0 3.066 1.357 3.066 3.026v4.838a8.991 8.991 0 013.498-2.637 3.645 3.645 0 01-.237-1.297c0-2.04 1.682-3.7 3.749-3.7 2.066 0 3.748 1.66 3.748 3.7 0 .45-.08.887-.237 1.297 3.197 1.35 5.443 4.486 5.443 8.13zM27.171 33.2h2.873a.89.89 0 011.071 0h2.874a.88.88 0 01.532-.178h8.566v-.891c0-4.869-3.94-8.846-8.84-8.986v1.324a.854.854 0 01-.046.279 3.82 3.82 0 01-3.62 2.556 3.819 3.819 0 01-3.62-2.556.857.857 0 01-.046-.28v-1.323a9.213 9.213 0 00-.586.035l-.015.001c-4.618.43-8.244 4.28-8.244 8.95v.891h8.57c.2 0 .384.066.531.178zM15.835 19.497c-.65 0-1.283-.08-1.887-.23v1.86c0 .305.25.552.559.552h2.656a.556.556 0 00.56-.552v-1.86a7.82 7.82 0 01-1.888.23zm6.037-2.866a7.768 7.768 0 01-2.398 1.967v.28c1.31.076 2.58.342 3.784.788a8.762 8.762 0 01-1.386-3.035zm4.065-.382v1.189c0 2.533 2.087 4.593 4.653 4.593 2.567 0 4.654-2.06 4.654-4.593v-1.189a.615.615 0 00-.618-.61h-8.07a.615.615 0 00-.62.61zM30.58 3.178c-1.1 0-1.996.884-1.996 1.97 0 .272.055.534.16.777a9.07 9.07 0 013.673 0c.105-.243.16-.505.16-.776 0-1.087-.896-1.971-1.997-1.971zm7.204 11.398c0-3.92-3.232-7.11-7.203-7.11-3.972 0-7.204 3.19-7.203 7.11 0 1.18.293 2.31.824 3.308a6.284 6.284 0 01-.017-.446v-1.189c0-1.29 1.063-2.34 2.37-2.34h8.07c1.307 0 2.37 1.05 2.37 2.34v1.189c0 .136-.006.27-.015.404.518-.99.803-2.104.803-3.266zM21.82 6.632V4.245c0-.715-.59-1.297-1.314-1.297-.725 0-1.314.582-1.314 1.297 0 .505.272.981.71 1.243l1.918 1.144zM11.164 2.948c-.725 0-1.314.582-1.314 1.297v2.387l1.918-1.144c.438-.262.71-.738.71-1.243 0-.715-.59-1.297-1.314-1.297zM9.85 8.652v3.209c0 3.257 2.684 5.908 5.985 5.908 3.3 0 5.985-2.65 5.985-5.908V8.652l-2.824-1.685a3.19 3.19 0 01-1.556-2.722c0-.778.299-1.488.79-2.024a6.022 6.022 0 00-2.395-.492c-.836 0-1.646.168-2.394.492.49.536.789 1.246.789 2.024a3.19 3.19 0 01-1.556 2.722L9.85 8.652zm6.468 24.37v-.892c0-4.811 3.228-8.892 7.658-10.244a11.172 11.172 0 00-4.502-1.273v.514c0 1.258-1.037 2.281-2.31 2.281h-2.657c-1.274 0-2.31-1.023-2.31-2.28v-.517c-5.828.4-10.445 5.206-10.445 11.058v1.352h14.566zm12.349-8.71a2.072 2.072 0 001.915 1.262c.842 0 1.596-.502 1.914-1.262v-.838a6.458 6.458 0 01-1.905.286c-.67 0-1.317-.103-1.924-.292v.844zM19.97 13.158v.24a.87.87 0 01-.876.865h-6.519a.87.87 0 01-.875-.864v-.24c0-2.252 1.855-4.083 4.135-4.083s4.135 1.831 4.135 4.082zm-4.135-2.353a2.383 2.383 0 00-2.299 1.729h4.598a2.383 2.383 0 00-2.3-1.729z" fill="#00D09C"></path></svg>