  <svg class="profileIcon" xmlns="http://www.w3.org/2000/svg" width="17" height="17" viewBox="0 0 17 17"><g fill="none" stroke="var(--text)" stroke-width=".8" opacity=".7" transform="translate(1 1)"><polygon points="14.063 13.125 14.063 7.5 12.188 7.5 12.188 13.125 10.313 13.125 10.313 7.5 8.438 7.5 8.438 13.125 6.563 13.125 6.563 7.5 4.688 7.5 4.688 13.125 2.813 13.125 2.813 7.5 .938 7.5 .938 13.125 0 13.125 0 15 15 15 15 13.125"></polygon><path d="M14.4375006,2.90625012 L7.87500031,0.0937500037 C7.5937503,-2.77555756e-17 7.40625029,-2.77555756e-17 7.12500028,0.0937500037 L0.562500022,2.90625012 C0.187500007,3.00000012 0,3.37500013 0,3.75000015 L0,5.62500022 C0,6.18750025 0.375000015,6.56250026 0.937500037,6.56250026 L14.0625006,6.56250026 C14.6250006,6.56250026 15,6.18750025 15,5.62500022 L15,3.75000015 C15,3.37500013 14.8125006,3.00000012 14.4375006,2.90625012 Z M7.5000003,4.68750019 C6.93750028,4.68750019 6.56250026,4.31250011 6.56250026,3.75000015 C6.56250026,3.18750013 6.93750028,2.81250011 7.5000003,2.81250011 C8.06250026,2.81250011 8.43750034,3.18750013 8.43750034,3.75000015 C8.43750034,4.31250011 8.06250026,4.68750019 7.5000003,4.68750019 Z"></path></g></svg>